<?xml version="1.0" encoding="UTF-8"?>
<svg id="Layer_1" data-name="Layer 1" xmlns="http://www.w3.org/2000/svg" viewBox="0 0 332.35 901.57">
  <defs>
    <style>
      .cls-1 {
        fill: #0dff00;
        opacity: .73;
        stroke: #000;
        stroke-miterlimit: 10;
        stroke-width: 9px;
      }

      .cls-2 {
        fill: #fff;
      }
    </style>
  </defs>
  <path class="cls-1" d="M194.74,33.19L5.45,549.38s-3.78,7.13,3.76,2.47,153.5-51.23,153.5-51.23c0,0,10.15-3.36,7.09,6.6l-31.05,360.96,188.56-516.94s2.71-4.8-3.92-1.93-150.63,57.87-150.63,57.87c0,0-13.43,6-10.72-10S194.74,33.19,194.74,33.19Z"/>
  <g>
    <path class="cls-2" d="M86.38,371.74l3.39-9.32,12.26-3.97-6.83-10.94,3.39-9.31,19.1,6.95-2.71,7.45-10.19-3.71,7.47,11.17-1.36,3.72-12.9,3.75,10.19,3.71-2.71,7.45-19.1-6.95Z"/>
    <path class="cls-2" d="M102.55,327.41l3.22-8.85,22.83-3.29-3.05,8.38-3.82.32-3.48,9.56,2.72,2.7-3.05,8.38-15.37-17.2ZM114.37,329.67l1.91-5.24-6.59.56,4.68,4.68Z"/>
    <path class="cls-2" d="M115.89,290.76c1.84-5.27,7.66-7.56,12.86-5.62,5.2,1.85,8.22,7.35,6.24,12.57l-6.19,17-19.1-6.95,6.19-16.99ZM121.44,294.35l-2.97,8.16,6.99,2.54,2.97-8.16c.7-1.93-.48-3.6-2.39-4.3-1.93-.7-3.89-.18-4.6,1.75Z"/>
    <path class="cls-2" d="M131.91,269.66c2.21-5.23,5.3-12.58,10.09-10.83,5.46,1.99,4.47,8.71,2.03,15.42-2.45,6.69-5.28,11.95-11.47,10.5l2.84-7.8c1.79-.31,2.89-2.15,3.74-4.48.84-2.32,1.49-5.3.02-5.84-.84-.31-1.81,1.96-3.04,4.91-2.21,5.23-5.3,12.58-10.07,10.83-5.46-1.99-4.49-8.71-2.05-15.42,2.48-6.68,5.25-11.96,11.48-10.5l-2.84,7.8c-1.82.3-2.89,2.15-3.74,4.48-.84,2.32-1.54,5.28-.02,5.84.84.31,1.79-1.97,3.03-4.92Z"/>
  </g>
  <g>
    <path class="cls-2" d="M201.2,637.27c3.39,1.19,4.17,4.69,2.96,8.01l-7.2,19.78-19.31-7.03,6.68-18.36c1.2-3.35,4.06-5.52,7.4-4.25,1.85.67,2.96,2.05,3.34,3.75,1.5-1.93,3.7-2.79,6.13-1.9ZM184.97,652.17l2.6.95,3.17-8.72c.24-.65-.23-1.42-.88-1.65-.65-.23-1.49.06-1.72.71l-3.17,8.72ZM198.79,645.73c.24-.65-.22-1.41-.86-1.65-.65-.24-1.49.06-1.72.71l-3.69,10.13,2.59.94,3.69-10.13Z"/>
    <path class="cls-2" d="M194.45,611.8l2.75-7.54,10.37,3.78c7.31,2.63,7.23,9.37,4.61,16.62-2.65,7.24-6.92,12.45-14.21,9.76l-10.37-3.78,2.74-7.53,9.9,3.6c3.16,1.19,4.66-1.22,5.82-4.29,1.08-3.09,1.48-5.9-1.71-7.02l-9.9-3.6Z"/>
    <path class="cls-2" d="M218.95,579.68c6.35,2.85,6.22,9.28,3.69,16.23-2.65,7.24-6.92,12.45-14.23,9.76l-1.41-.51c-7.31-2.63-7.23-9.37-4.62-16.62,2.54-6.95,6.58-11.96,13.26-10.06l-2.81,7.72c-2.15.01-3.38,1.99-4.32,4.58-1.08,3.09-1.48,5.9,1.71,7.02l.47.17c3.13,1.19,4.66-1.22,5.82-4.28.94-2.59,1.27-4.91-.38-6.29l2.81-7.72Z"/>
    <path class="cls-2" d="M223.91,570.43l6.59,2.4-2.74,7.53-19.31-7.03,2.74-7.53,6.59,2.4,4.12-11.31-6.59-2.4,2.75-7.54,19.31,7.03-2.75,7.54-6.59-2.4-4.12,11.31Z"/>
    <path class="cls-2" d="M235.1,539.69l6.59,2.4-2.74,7.53-19.31-7.03,2.74-7.53,6.59,2.4,4.12-11.31-6.59-2.4,2.75-7.54,19.31,7.03-2.75,7.54-6.59-2.4-4.12,11.31Z"/>
    <path class="cls-2" d="M233.25,505.3l3.26-8.95,23.08-3.33-3.09,8.48-3.86.32-3.52,9.67,2.75,2.73-3.08,8.48-15.54-17.39ZM245.2,507.58l1.93-5.3-6.67.57,4.74,4.73Z"/>
    <path class="cls-2" d="M257.09,481.51l-11.26-10.77,3.09-8.48,15.71,16.93-3.26,8.95-22.91,2.86,3.09-8.48,15.55-1.01Z"/>
    <path class="cls-2" d="M249.12,461.7l8.23-22.6,4.94,1.8-5.49,15.07,2.47.9,5.49-15.07,4.47,1.63-5.49,15.07,2.47.9,5.49-15.07,4.96,1.8-8.23,22.6-19.31-7.03Z"/>
  </g>
</svg>